<?xml version="1.0" encoding="UTF-8"?>
<svg xmlns="http://www.w3.org/2000/svg" viewBox="0 0 1600 1150" width="1600" height="1150" font-family="'Helvetica Neue', Helvetica, Arial, sans-serif">
<title>CU-03 Elevación Ampliada de Mobiliario - Blue Valley 1:25</title>
<desc>Reproducción vectorial precisa con código - No difusión - Geometría paramétrica</desc>

<!-- FONDO -->
<rect x="0" y="0" width="1600" height="1150" fill="#FFFFFF"/>

<!-- DEFINICIONES -->
<defs>
  <!-- Hatch muros laterales -->
  <pattern id="hatchMuro" width="8" height="8" patternTransform="rotate(-45)" patternUnits="userSpaceOnUse">
    <rect width="8" height="8" fill="#D8D8D8"/>
    <line x1="0" y1="0" x2="0" y2="8" stroke="#7A7A7A" stroke-width="0.7" />
  </pattern>
  <!-- Dots losa -->
  <pattern id="dotsFloor" width="10" height="8" patternUnits="userSpaceOnUse">
    <rect width="10" height="8" fill="#E9E9E9"/>
    <circle cx="2" cy="2" r="0.7" fill="#B8B8B8"/>
    <circle cx="7" cy="5" r="0.7" fill="#B8B8B8"/>
    <circle cx="5" cy="2" r="0.5" fill="#B8B8B8"/>
  </pattern>
  <!-- Sombra puerta -->
  <pattern id="vetaMadera" width="120" height="120" patternUnits="userSpaceOnUse">
    <rect width="120" height="120" fill="#FFFBF2"/>
  </pattern>
</defs>

<!-- ================= HEADER NEGRO SUP ================= -->
<rect x="0" y="0" width="1600" height="38" fill="black"/>
<text x="18" y="24" fill="white" font-size="15" font-weight="700" letter-spacing="0.4">BLUE VALLEY</text>
<text x="137" y="24" fill="white" font-size="15" font-weight="300">·</text>
<text x="148" y="24" fill="white" font-size="14" font-weight="600" letter-spacing="0.6">PROPUESTA DE DETALLE DE MOBILIARIO</text>
<text x="1335" y="23" fill="white" font-size="14" font-weight="700" letter-spacing="0.5">LAMINA</text>
<text x="1412" y="23" fill="white" font-size="14" font-weight="300">·</text>
<text x="1425" y="23" fill="white" font-size="14" font-weight="700">CU-03</text>
<line x1="0" y1="38" x2="1600" y2="38" stroke="black" stroke-width="2"/>

<!-- ================= TITULO SECCION A-A (arriba derecha) ================= -->
<g text-anchor="start">
  <text x="1338" y="68" font-size="14" font-weight="800" letter-spacing="0.3">3</text>
  <text x="1352" y="68" font-size="12" font-weight="700" letter-spacing="0.5">SECCION A-A</text>
  <text x="1338" y="80" font-size="7.5" fill="#555" letter-spacing="0.4">PROFUNDIDAD · ESC. 1:25</text>
</g>

<!-- ================= GEOMETRIA BASE ================= -->
<!-- Coordenadas clave: tomamos origen elevación -->
<!-- X elevación: izquierda 140, derecha 1175, total ~1035px = 6.67m => 155 px/m -->
<!-- Y elevación: losa NPT y=512, base puertas y=493, techo puertas y=162, cielo y=116 -->
<!-- Config -->
<!-- Export for later script -->
<g id="elevacion-principal">

  <!-- Losa NPT -->
  <rect x="110" y="512" width="1095" height="22" fill="url(#dotsFloor)" stroke="black" stroke-width="1.1"/>
  <text x="1215" y="518" font-size="7" fill="black">NPT</text>
  <line x1="1210" y1="520" x2="1265" y2="520" stroke="black" stroke-width="0.5"/>
  <line x1="1210" y1="519" x2="1210" y2="521" stroke="black" stroke-width="0.5"/>
  <line x1="1265" y1="519" x2="1265" y2="521" stroke="black" stroke-width="0.5"/>

  <!-- Muros laterales hatched + pilastras -->
  <rect x="140" y="116" width="28" height="396" fill="url(#hatchMuro)" stroke="black" stroke-width="1.1"/>
  <rect x="1147" y="116" width="28" height="396" fill="url(#hatchMuro)" stroke="black" stroke-width="1.1"/>
  <!-- Viga superior / cielo -->
  <rect x="140" y="116" width="1035" height="28" fill="#E8E8E8" stroke="black" stroke-width="1.1"/>
  <!-- hatch cielo diagonal sutil -->
  <g opacity="0.35">
    <line x1="168" y1="116" x2="158" y2="144" stroke="#666" stroke-width="0.4"/>
    <line x1="178" y1="116" x2="168" y2="144" stroke="#666" stroke-width="0.4"/>
    <line x1="188" y1="116" x2="178" y2="144" stroke="#666" stroke-width="0.4"/>
    <!-- repeated via pattern approximated with many lines -->
    <!-- use loop visual manual: 50 lines -->
    <g stroke="#666" stroke-width="0.4">
      <line x1="198" y1="116" x2="188" y2="144"/><line x1="208" y1="116" x2="198" y2="144"/><line x1="218" y1="116" x2="208" y2="144"/><line x1="228" y1="116" x2="218" y2="144"/><line x1="238" y1="116" x2="228" y2="144"/><line x1="248" y1="116" x2="238" y2="144"/><line x1="258" y1="116" x2="248" y2="144"/><line x1="268" y1="116" x2="258" y2="144"/><line x1="278" y1="116" x2="268" y2="144"/><line x1="288" y1="116" x2="278" y2="144"/><line x1="298" y1="116" x2="288" y2="144"/><line x1="308" y1="116" x2="298" y2="144"/><line x1="318" y1="116" x2="308" y2="144"/><line x1="328" y1="116" x2="318" y2="144"/><line x1="338" y1="116" x2="328" y2="144"/><line x1="348" y1="116" x2="338" y2="144"/><line x1="358" y1="116" x2="348" y2="144"/><line x1="368" y1="116" x2="358" y2="144"/><line x1="378" y1="116" x2="368" y2="144"/><line x1="388" y1="116" x2="378" y2="144"/><line x1="398" y1="116" x2="388" y2="144"/><line x1="408" y1="116" x2="398" y2="144"/><line x1="418" y1="116" x2="408" y2="144"/><line x1="428" y1="116" x2="418" y2="144"/><line x1="438" y1="116" x2="428" y2="144"/><line x1="448" y1="116" x2="438" y2="144"/><line x1="458" y1="116" x2="448" y2="144"/><line x1="468" y1="116" x2="458" y2="144"/><line x1="478" y1="116" x2="468" y2="144"/><line x1="488" y1="116" x2="478" y2="144"/><line x1="498" y1="116" x2="488" y2="144"/><line x1="508" y1="116" x2="498" y2="144"/><line x1="518" y1="116" x2="508" y2="144"/><line x1="528" y1="116" x2="518" y2="144"/><line x1="538" y1="116" x2="528" y2="144"/><line x1="548" y1="116" x2="538" y2="144"/><line x1="558" y1="116" x2="548" y2="144"/><line x1="568" y1="116" x2="558" y2="144"/><line x1="578" y1="116" x2="568" y2="144"/><line x1="588" y1="116" x2="578" y2="144"/><line x1="598" y1="116" x2="588" y2="144"/><line x1="608" y1="116" x2="598" y2="144"/><line x1="618" y1="116" x2="608" y2="144"/><line x1="628" y1="116" x2="618" y2="144"/><line x1="638" y1="116" x2="628" y2="144"/><line x1="648" y1="116" x2="638" y2="144"/><line x1="658" y1="116" x2="648" y2="144"/><line x1="668" y1="116" x2="658" y2="144"/><line x1="678" y1="116" x2="668" y2="144"/><line x1="688" y1="116" x2="678" y2="144"/><line x1="698" y1="116" x2="688" y2="144"/><line x1="708" y1="116" x2="698" y2="144"/><line x1="718" y1="116" x2="708" y2="144"/><line x1="728" y1="116" x2="718" y2="144"/><line x1="738" y1="116" x2="728" y2="144"/><line x1="748" y1="116" x2="738" y2="144"/><line x1="758" y1="116" x2="748" y2="144"/><line x1="768" y1="116" x2="758" y2="144"/><line x1="778" y1="116" x2="768" y2="144"/><line x1="788" y1="116" x2="778" y2="144"/><line x1="798" y1="116" x2="788" y2="144"/><line x1="808" y1="116" x2="798" y2="144"/><line x1="818" y1="116" x2="808" y2="144"/><line x1="828" y1="116" x2="818" y2="144"/><line x1="838" y1="116" x2="828" y2="144"/><line x1="848" y1="116" x2="838" y2="144"/><line x1="858" y1="116" x2="848" y2="144"/><line x1="868" y1="116" x2="858" y2="144"/><line x1="878" y1="116" x2="868" y2="144"/><line x1="888" y1="116" x2="878" y2="144"/><line x1="898" y1="116" x2="888" y2="144"/><line x1="908" y1="116" x2="898" y2="144"/><line x1="918" y1="116" x2="908" y2="144"/><line x1="928" y1="116" x2="918" y2="144"/><line x1="938" y1="116" x2="928" y2="144"/><line x1="948" y1="116" x2="938" y2="144"/><line x1="958" y1="116" x2="948" y2="144"/><line x1="968" y1="116" x2="958" y2="144"/><line x1="978" y1="116" x2="968" y2="144"/><line x1="988" y1="116" x2="978" y2="144"/><line x1="998" y1="116" x2="988" y2="144"/><line x1="1008" y1="116" x2="998" y2="144"/><line x1="1018" y1="116" x2="1008" y2="144"/><line x1="1028" y1="116" x2="1018" y2="144"/><line x1="1038" y1="116" x2="1028" y2="144"/><line x1="1048" y1="116" x2="1038" y2="144"/><line x1="1058" y1="116" x2="1048" y2="144"/><line x1="1068" y1="116" x2="1058" y2="144"/><line x1="1078" y1="116" x2="1068" y2="144"/><line x1="1088" y1="116" x2="1078" y2="144"/><line x1="1098" y1="116" x2="1088" y2="144"/><line x1="1108" y1="116" x2="1098" y2="144"/><line x1="1118" y1="116" x2="1108" y2="144"/><line x1="1128" y1="116" x2="1118" y2="144"/><line x1="1138" y1="116" x2="1128" y2="144"/>
    </g>
  </g>

  <!-- Etiquetas superiores closets -->
  <text x="358" y="106" font-size="8" fill="#8C5A1A" font-weight="600" letter-spacing="0.5" text-anchor="middle">CLOSET IZQUIERDO · 4 PUERTAS ALTAS</text>
  <text x="958" y="106" font-size="8" fill="#8C5A1A" font-weight="600" letter-spacing="0.5" text-anchor="middle">CLOSET DERECHO · 4 PUERTAS ALTAS</text>
  <text x="358" y="120" font-size="6.5" fill="#666" text-anchor="middle">2.50 m · nada expuesto</text>
  <text x="958" y="120" font-size="6.5" fill="#666" text-anchor="middle">2.50 m · nada expuesto</text>

  <!-- ========= PUERTAS ========= -->
  <!-- Definimos: closets lat es 425px ancho cada lado? Check: total 1035, centro 185, laterales = (1035-185)/2=425 -->
  <!-- cada puerta ~106.25 -->
  <!-- Y puertas: de y=144 a y=493 altura 349 ~2.50m -->
  <!-- Zocalo -->
  <rect x="168" y="493" width="425" height="19" fill="#C9A87A" stroke="black" stroke-width="0.9"/>
  <rect x="753" y="493" width="425" height="19" fill="#C9A87A" stroke="black" stroke-width="0.9"/>
  <!-- zocalo centro también -->
  <rect x="593" y="493" width="185" height="19" fill="#C9A87A" stroke="black" stroke-width="0.9"/>

  <!-- Puertas 01-04 izquierda -->
  <!-- 01 -->
  <rect x="168" y="144" width="106.25" height="349" fill="#FFFBF2" stroke="black" stroke-width="1.1"/>
  <rect x="174" y="150" width="94.25" height="337" fill="none" stroke="#D9C2A0" stroke-width="0.7"/>
  <!-- repisa fantasma -->
  <line x1="168" y1="210" x2="274.25" y2="210" stroke="#D9C2A0" stroke-width="0.6"/>
  <!-- 02 -->
  <rect x="274.25" y="144" width="106.25" height="349" fill="#FFFBF2" stroke="black" stroke-width="1.1"/>
  <rect x="280.25" y="150" width="94.25" height="337" fill="none" stroke="#D9C2A0" stroke-width="0.7"/>
  <line x1="274.25" y1="210" x2="380.5" y2="210" stroke="#D9C2A0" stroke-width="0.6"/>
  <!-- 03 -->
  <rect x="380.5" y="144" width="106.25" height="349" fill="#FFFBF2" stroke="black" stroke-width="1.1"/>
  <rect x="386.5" y="150" width="94.25" height="337" fill="none" stroke="#D9C2A0" stroke-width="0.7"/>
  <!-- repisas regulables lineas punteadas -->
  <line x1="386.5" y1="215" x2="480.75" y2="215" stroke="#C9A87A" stroke-width="0.7" stroke-dasharray="7 5"/>
  <line x1="386.5" y1="278" x2="480.75" y2="278" stroke="#C9A87A" stroke-width="0.7" stroke-dasharray="7 5"/>
  <line x1="386.5" y1="342" x2="480.75" y2="342" stroke="#C9A87A" stroke-width="0.7" stroke-dasharray="7 5"/>
  <line x1="386.5" y1="405" x2="480.75" y2="405" stroke="#C9A87A" stroke-width="0.7" stroke-dasharray="7 5"/>
  <!-- 04 -->
  <rect x="486.75" y="144" width="106.25" height="349" fill="#FFFBF2" stroke="black" stroke-width="1.1"/>
  <rect x="492.75" y="150" width="94.25" height="337" fill="none" stroke="#D9C2A0" stroke-width="0.7"/>
  <line x1="492.75" y1="215" x2="587" y2="215" stroke="#C9A87A" stroke-width="0.7" stroke-dasharray="7 5"/>
  <line x1="492.75" y1="278" x2="587" y2="278" stroke="#C9A87A" stroke-width="0.7" stroke-dasharray="7 5"/>
  <line x1="492.75" y1="342" x2="587" y2="342" stroke="#C9A87A" stroke-width="0.7" stroke-dasharray="7 5"/>
  <line x1="492.75" y1="405" x2="587" y2="405" stroke="#C9A87A" stroke-width="0.7" stroke-dasharray="7 5"/>

  <!-- Puertas 05-08 derecha -->
  <rect x="753" y="144" width="106.25" height="349" fill="#FFFBF2" stroke="black" stroke-width="1.1"/>
  <rect x="759" y="150" width="94.25" height="337" fill="none" stroke="#D9C2A0" stroke-width="0.7"/>
  <line x1="759" y1="215" x2="853.25" y2="215" stroke="#C9A87A" stroke-width="0.7" stroke-dasharray="7 5"/>
  <line x1="759" y1="278" x2="853.25" y2="278" stroke="#C9A87A" stroke-width="0.7" stroke-dasharray="7 5"/>
  <line x1="759" y1="342" x2="853.25" y2="342" stroke="#C9A87A" stroke-width="0.7" stroke-dasharray="7 5"/>
  <line x1="759" y1="405" x2="853.25" y2="405" stroke="#C9A87A" stroke-width="0.7" stroke-dasharray="7 5"/>

  <rect x="859.25" y="144" width="106.25" height="349" fill="#FFFBF2" stroke="black" stroke-width="1.1"/>
  <rect x="865.25" y="150" width="94.25" height="337" fill="none" stroke="#D9C2A0" stroke-width="0.7"/>
  <line x1="865.25" y1="215" x2="959.5" y2="215" stroke="#C9A87A" stroke-width="0.7" stroke-dasharray="7 5"/>
  <line x1="865.25" y1="278" x2="959.5" y2="278" stroke="#C9A87A" stroke-width="0.7" stroke-dasharray="7 5"/>
  <line x1="865.25" y1="342" x2="959.5" y2="342" stroke="#C9A87A" stroke-width="0.7" stroke-dasharray="7 5"/>
  <line x1="865.25" y1="405" x2="959.5" y2="405" stroke="#C9A87A" stroke-width="0.7" stroke-dasharray="7 5"/>

  <rect x="965.5" y="144" width="106.25" height="349" fill="#FFFBF2" stroke="black" stroke-width="1.1"/>
  <rect x="971.5" y="150" width="94.25" height="337" fill="none" stroke="#D9C2A0" stroke-width="0.7"/>

  <rect x="1071.75" y="144" width="106.25" height="349" fill="#FFFBF2" stroke="black" stroke-width="1.1"/>
  <rect x="1077.75" y="150" width="94.25" height="337" fill="none" stroke="#D9C2A0" stroke-width="0.7"/>

  <!-- Etiquetas numeros puerta -->
  <g font-size="7" fill="#C9A87A" text-anchor="middle" opacity="0.9">
    <text x="221.1" y="300">01</text>
    <text x="327.3" y="300">02</text>
    <text x="433.6" y="300">03</text>
    <text x="539.9" y="300">04</text>
    <text x="806.1" y="300">05</text>
    <text x="912.3" y="300">06</text>
    <text x="1018.6" y="300">07</text>
    <text x="1124.9" y="300">08</text>
  </g>

  <!-- Tiradores verticales negros -->
  <g fill="#2B2B2B" stroke="#1A1A1A" stroke-width="0.5">
    <!-- 01-02 centro -->
    <rect x="256.5" y="350" width="5" height="18" rx="1.5"/>
    <rect x="276.5" y="350" width="5" height="18" rx="1.5"/>
    <!-- 03-04 -->
    <rect x="469" y="350" width="5" height="18" rx="1.5"/>
    <rect x="489" y="350" width="5" height="18" rx="1.5"/>
    <!-- 05-06 -->
    <rect x="841.5" y="350" width="5" height="18" rx="1.5"/>
    <rect x="861.5" y="350" width="5" height="18" rx="1.5"/>
    <!-- 07-08 -->
    <rect x="1054" y="350" width="5" height="18" rx="1.5"/>
    <rect x="1074" y="350" width="5" height="18" rx="1.5"/>
  </g>

  <!-- MUEBLE CENTRAL -->
  <!-- Superior 0.45m : 144 a 197? altura 53 -->
  <rect x="593" y="144" width="185" height="53" fill="#FFFBF2" stroke="black" stroke-width="1.1"/>
  <line x1="685.5" y1="144" x2="685.5" y2="197" stroke="black" stroke-width="0.8"/>
  <text x="685.5" y="164" font-size="6.5" text-anchor="middle" fill="#333">SUPERIOR</text>
  <text x="685.5" y="175" font-size="6.5" text-anchor="middle" fill="#333">0.45 m</text>
  <!-- tiradores horizontales chicos -->
  <rect x="615" y="180" width="14" height="4.5" rx="1" fill="#2B2B2B"/>
  <rect x="703" y="180" width="14" height="4.5" rx="1" fill="#2B2B2B"/>

  <!-- Vano escritorio -->
  <rect x="593" y="197" width="185" height="212" fill="white" stroke="black" stroke-width="1.1"/>
  <text x="685.5" y="290" font-size="8" font-weight="700" fill="#2F5B8A" text-anchor="middle">ESCRITORIO</text>
  <text x="685.5" y="302" font-size="8" font-weight="700" fill="#2F5B8A" text-anchor="middle">PROFESOR</text>
  <text x="685.5" y="316" font-size="7.5" fill="#2F5B8A" text-anchor="middle">1.20 × 0.70 m</text>

  <!-- Cajonera inferior beige -->
  <rect x="593" y="409" width="185" height="84" fill="#EADBC0" stroke="black" stroke-width="1.1"/>
  <rect x="599" y="415" width="173" height="72" fill="none" stroke="#C9A87A" stroke-width="0.6"/>

  <!-- linea de alineacion 2.05m (horizontal guía) -->
  <line x1="760" y1="415" x2="812" y2="415" stroke="black" stroke-width="0.6"/>

  <!-- ETIQUETAS INFERIORES -->
  <g font-size="6.5">
    <rect x="200" y="465" width="125" height="12" rx="2" fill="#FFF8E8" stroke="#C9A87A" stroke-width="0.5"/>
    <text x="262.5" y="473.5" text-anchor="middle" fill="#333">01-02 <tspan fill="#666"> instrumentos altos</tspan></text>

    <rect x="412" y="465" width="125" height="12" rx="2" fill="#FFF8E8" stroke="#C9A87A" stroke-width="0.5"/>
    <text x="474.5" y="473.5" text-anchor="middle" fill="#333">03-04 <tspan fill="#666"> repisas regulables</tspan></text>

    <rect x="790" y="465" width="125" height="12" rx="2" fill="#FFF8E8" stroke="#C9A87A" stroke-width="0.5"/>
    <text x="852.5" y="473.5" text-anchor="middle" fill="#333">05-06 <tspan fill="#666"> repisas regulables</tspan></text>

    <rect x="988" y="465" width="125" height="12" rx="2" fill="#FFF8E8" stroke="#C9A87A" stroke-width="0.5"/>
    <text x="1050.5" y="473.5" text-anchor="middle" fill="#333">07-08 <tspan fill="#666"> instrumentos altos</tspan></text>
  </g>

  <!-- ========= COTAS VERTICALES IZQUIERDA ========= -->
  <g stroke="black" stroke-width="0.5" fill="none">
    <!-- 0.45 superior -->
    <line x1="125" y1="144" x2="125" y2="197"/>
    <line x1="115" y1="144" x2="135" y2="144"/>
    <line x1="115" y1="197" x2="135" y2="197"/>
    <line x1="120" y1="144" x2="130" y2="154" stroke-width="0.4"/>
    <line x1="120" y1="197" x2="130" y2="187" stroke-width="0.4"/>
  </g>
  <text x="62" y="175" font-size="8" text-anchor="middle" fill="black">0.45 m</text>

  <g stroke="black" stroke-width="0.5" fill="none">
    <!-- 2.50 medio -->
    <line x1="125" y1="197" x2="125" y2="409"/>
    <line x1="115" y1="197" x2="135" y2="197"/>
    <line x1="115" y1="409" x2="135" y2="409"/>
    <line x1="120" y1="197" x2="130" y2="207" stroke-width="0.4"/>
    <line x1="120" y1="409" x2="130" y2="399" stroke-width="0.4"/>
  </g>
  <text x="62" y="311" font-size="8" text-anchor="middle">2.50 m</text>

  <g stroke="black" stroke-width="0.5" fill="none">
    <!-- 0.76 inferior -->
    <line x1="125" y1="409" x2="125" y2="512"/>
    <line x1="115" y1="409" x2="135" y2="409"/>
    <line x1="115" y1="512" x2="135" y2="512"/>
    <line x1="120" y1="409" x2="130" y2="419" stroke-width="0.4"/>
    <line x1="120" y1="512" x2="130" y2="502" stroke-width="0.4"/>
  </g>
  <text x="62" y="469" font-size="8" text-anchor="middle">0.76 m</text>

  <!-- ========= COTAS VERTICALES DERECHA ========= -->
  <g stroke="black" stroke-width="0.5" fill="none">
    <line x1="1190" y1="144" x2="1190" y2="197"/>
    <line x1="1180" y1="144" x2="1200" y2="144"/>
    <line x1="1180" y1="197" x2="1200" y2="197"/>
    <line x1="1185" y1="144" x2="1195" y2="154" stroke-width="0.4"/>
    <line x1="1185" y1="197" x2="1195" y2="187" stroke-width="0.4"/>
  </g>
  <text x="1235" y="175" font-size="8" text-anchor="middle">0.45 m</text>

  <g stroke="black" stroke-width="0.5" fill="none">
    <line x1="1190" y1="197" x2="1190" y2="409"/>
    <line x1="1180" y1="197" x2="1200" y2="197"/>
    <line x1="1180" y1="409" x2="1200" y2="409"/>
    <line x1="1185" y1="197" x2="1195" y2="207" stroke-width="0.4"/>
    <line x1="1185" y1="409" x2="1195" y2="399" stroke-width="0.4"/>
  </g>
  <text x="1235" y="311" font-size="8" text-anchor="middle">2.50 m</text>

  <g stroke="black" stroke-width="0.5" fill="none">
    <line x1="1190" y1="409" x2="1190" y2="512"/>
    <line x1="1180" y1="409" x2="1200" y2="409"/>
    <line x1="1180" y1="512" x2="1200" y2="512"/>
    <line x1="1185" y1="409" x2="1195" y2="419" stroke-width="0.4"/>
    <line x1="1185" y1="512" x2="1195" y2="502" stroke-width="0.4"/>
  </g>
  <text x="1235" y="469" font-size="8" text-anchor="middle">0.76 m</text>

  <!-- ========= COTAS HORIZONTALES INFERIORES ========= -->
  <g stroke="black" stroke-width="0.5" fill="none">
    <!-- 2.735 izquierda -->
    <line x1="168" y1="558" x2="593" y2="558"/>
    <line x1="168" y1="553" x2="168" y2="563"/>
    <line x1="593" y1="553" x2="593" y2="563"/>
    <line x1="168" y1="558" x2="178" y2="553" stroke-width="0.4"/>
    <line x1="168" y1="558" x2="178" y2="563" stroke-width="0.4"/>
    <line x1="593" y1="558" x2="583" y2="553" stroke-width="0.4"/>
    <line x1="593" y1="558" x2="583" y2="563" stroke-width="0.4"/>
  </g>
  <text x="380" y="555" font-size="8" text-anchor="middle">2.735 m</text>

  <g stroke="black" stroke-width="0.5" fill="none">
    <!-- 1.20 centro -->
    <line x1="593" y1="558" x2="778" y2="558"/>
    <line x1="593" y1="553" x2="593" y2="563"/>
    <line x1="778" y1="553" x2="778" y2="563"/>
    <line x1="593" y1="558" x2="603" y2="553" stroke-width="0.4"/>
    <line x1="593" y1="558" x2="603" y2="563" stroke-width="0.4"/>
    <line x1="778" y1="558" x2="768" y2="553" stroke-width="0.4"/>
    <line x1="778" y1="558" x2="768" y2="563" stroke-width="0.4"/>
  </g>
  <text x="685.5" y="555" font-size="8" text-anchor="middle">1.20 m</text>

  <g stroke="black" stroke-width="0.5" fill="none">
    <!-- 2.735 derecha -->
    <line x1="778" y1="558" x2="1178" y2="558"/>
    <line x1="778" y1="553" x2="778" y2="563"/>
    <line x1="1178" y1="553" x2="1178" y2="563"/>
    <line x1="778" y1="558" x2="788" y2="553" stroke-width="0.4"/>
    <line x1="778" y1="558" x2="788" y2="563" stroke-width="0.4"/>
    <line x1="1178" y1="558" x2="1168" y2="553" stroke-width="0.4"/>
    <line x1="1178" y1="558" x2="1168" y2="563" stroke-width="0.4"/>
  </g>
  <text x="978" y="555" font-size="8" text-anchor="middle">2.735 m</text>

  <g stroke="black" stroke-width="0.5" fill="none">
    <!-- 6.67 entre muros -->
    <line x1="168" y1="582" x2="1178" y2="582"/>
    <line x1="168" y1="577" x2="168" y2="587"/>
    <line x1="1178" y1="577" x2="1178" y2="587"/>
    <line x1="168" y1="582" x2="178" y2="577" stroke-width="0.4"/>
    <line x1="168" y1="582" x2="178" y2="587" stroke-width="0.4"/>
    <line x1="1178" y1="582" x2="1168" y2="577" stroke-width="0.4"/>
    <line x1="1178" y1="582" x2="1168" y2="587" stroke-width="0.4"/>
  </g>
  <text x="673" y="590" font-size="8.5" text-anchor="middle">6.67 m  ·  ENTRE MUROS</text>
</g>

<!-- ================= SECCION A-A DERECHA ================= -->
<g id="seccion-aa">
  <!-- Losa -->
  <rect x="1312" y="512" width="210" height="22" fill="url(#dotsFloor)" stroke="black" stroke-width="1.0"/>
  <!-- Muro lateral -->
  <rect x="1325" y="144" width="28" height="368" fill="#D8D8D8" stroke="black" stroke-width="1.0"/>
  <!-- Viga superior -->
  <rect x="1312" y="116" width="155" height="28" fill="#E8E8E8" stroke="black" stroke-width="1.0"/>
  <!-- Closet fondo beige vertical -->
  <rect x="1353" y="144" width="102" height="368" fill="#EADBC0" stroke="black" stroke-width="1.0"/>
  <!-- interior shelves horizontales -->
  <line x1="1353" y1="195" x2="1455" y2="195" stroke="#C9A87A" stroke-width="0.7"/>
  <line x1="1353" y1="240" x2="1455" y2="240" stroke="#C9A87A" stroke-width="0.7"/>
  <line x1="1353" y1="285" x2="1455" y2="285" stroke="#C9A87A" stroke-width="0.7"/>
  <line x1="1353" y1="330" x2="1455" y2="330" stroke="#C9A87A" stroke-width="0.7"/>
  <line x1="1353" y1="375" x2="1455" y2="375" stroke="black" stroke-width="0.6"/>
  <line x1="1353" y1="430" x2="1455" y2="430" stroke="#C9A87A" stroke-width="0.7"/>
  <line x1="1353" y1="475" x2="1455" y2="475" stroke="#C9A87A" stroke-width="0.7"/>
  <!-- puerta? line interior -->
  <line x1="1438" y1="144" x2="1438" y2="512" stroke="black" stroke-width="0.6" opacity="0.8"/>
  <!-- bisagras -->
  <circle cx="1440" cy="350" r="1.2" fill="black"/>
  <circle cx="1440" cy="370" r="1.2" fill="black"/>
  <!-- zocalo -->
  <rect x="1353" y="493" width="102" height="19" fill="#C9A87A" stroke="black" stroke-width="0.9"/>
  <!-- texto FONDO -->
  <text x="1362" y="165" font-size="7" fill="#333" font-weight="600">FONDO</text>

  <!-- linea escritorio profundidad 0.70 -->
  <polyline points="1353,415 1475,415 1475,512" fill="none" stroke="#2F5B8A" stroke-width="0.9"/>
  <polyline points="1475,415 1475,512" fill="none" stroke="#2F5B8A" stroke-width="0.7" stroke-dasharray="5 4"/>
  <!-- horizontal low -->
  <line x1="1353" y1="415" x2="1475" y2="415" stroke="#2F5B8A" stroke-width="0.9"/>

  <!-- cotas sección -->
  <g stroke="black" stroke-width="0.5" fill="none" opacity="0.9">
    <line x1="1353" y1="560" x2="1455" y2="560"/>
    <line x1="1353" y1="555" x2="1353" y2="565"/>
    <line x1="1455" y1="555" x2="1455" y2="565"/>
  </g>
  <text x="1404" y="568" font-size="7.5" text-anchor="middle">0.60 m closet</text>

  <g stroke="black" stroke-width="0.5" fill="none">
    <line x1="1325" y1="580" x2="1483" y2="580"/>
    <line x1="1325" y1="575" x2="1325" y2="585"/>
    <line x1="1483" y1="575" x2="1483" y2="585"/>
  </g>
  <text x="1404" y="588" font-size="7.5" text-anchor="middle">0.70 m escritorio</text>
</g>

<!-- ================= LINEA SEPARADORA INFERIOR ================= -->
<line x1="18" y1="768" x2="1585" y2="768" stroke="black" stroke-width="1.6"/>

<!-- Escala grafica -->
<g id="escala-grafica">
  <text x="18" y="750" font-size="6.5" fill="black">ESCALA GRAFICA</text>
  <rect x="18" y="755" width="90" height="6" fill="black" stroke="black" stroke-width="0.5"/>
  <rect x="108" y="755" width="90" height="6" fill="white" stroke="black" stroke-width="0.5"/>
  <line x1="18" y1="761" x2="18" y2="766" stroke="black" stroke-width="0.5"/>
  <line x1="108" y1="761" x2="108" y2="766" stroke="black" stroke-width="0.5"/>
  <line x1="198" y1="761" x2="198" y2="766" stroke="black" stroke-width="0.5"/>
  <text x="16" y="770" font-size="6" fill="black">0</text>
  <text x="102" y="770" font-size="6" fill="black">1 m</text>
  <text x="188" y="770" font-size="6" fill="black">2 m</text>
</g>

<!-- TITULO 2 ELEVACION -->
<g id="bloque-inferior">
  <circle cx="24" cy="793" r="14" fill="none" stroke="black" stroke-width="1.4"/>
  <text x="24" y="798" font-size="14" font-weight="800" text-anchor="middle">2</text>
  <text x="48" y="797" font-size="14" font-weight="800" letter-spacing="0.6">ELEVACION AMPLIADA DE MOBILIARIO</text>
  <text x="378" y="797" font-size="14" font-weight="300">—</text>
  <text x="398" y="797" font-size="14" font-weight="800">CU-03</text>

  <text x="48" y="812" font-size="7.5" fill="#555" letter-spacing="0.6">ESCALA 1 : 25</text>
  <text x="130" y="812" font-size="7.5" fill="#555">·</text>
  <text x="140" y="812" font-size="7.5" fill="#555" letter-spacing="0.3">PROPUESTA CORREGIDA</text>
  <text x="265" y="812" font-size="7.5" fill="#555">·</text>
  <text x="275" y="812" font-size="7.5" fill="#555" letter-spacing="0.3">ESCRITORIO 1.20 m  +  CLOSETS DE PUERTAS ALTAS</text>

  <!-- Columnas texto -->
  <!-- COL 1: CRITERIO DE DISEÑO -->
  <g font-size="7.5" fill="black">
    <text x="18" y="840" font-size="9" font-weight="800">CRITERIO DE DISEÑO</text>
    <text x="18" y="853" font-size="6.8">• El vano central se reduce a 1.20 m (escritorio de profesor). Antes medía 3.46 m</text>
    <text x="24" y="863" font-size="6.8">y desproporcionaba el alzado.</text>
    <text x="18" y="873" font-size="6.8">• Los 2.26 m recuperados se suman a los closets laterales: 2.735 m a cada lado.</text>
    <text x="18" y="883" font-size="6.8">• Puertas de piso a cielo (2.50 m) en ambos closets. Nada queda expuesto.</text>
    <text x="18" y="893" font-size="6.8">• junta de alineación a 2.05 m coincide con el fondo del mueble superior de 0.45 m.</text>
    <text x="18" y="903" font-size="6.8">• Zócalo de 0.08 m. Sobrepuesta de puerta hasta el zócalo para proteger cantos.</text>

    <text x="18" y="922" font-size="9" font-weight="800">PROFUNDIDAD</text>
    <text x="18" y="935" font-size="6.8">• Closet: 0.60 m libres interiores (fondo comercial estándar).</text>
    <text x="18" y="945" font-size="6.8">• Escritorio: 0.70 m de fondo (10 cm más que el closet) para superficie de trabajo.</text>
    <text x="18" y="955" font-size="6.8">• Estuche de guitarra de pie cabe de canto: guitarra colgada exige mín. 0.40 m.</text>
  </g>

  <!-- COL 2: ALMACENAJE -->
  <g font-size="7.5" fill="black">
    <text x="780" y="840" font-size="9" font-weight="800">ALMACENAJE DE INSTRUMENTOS</text>
    <text x="780" y="853" font-size="6.8">Vanos altos (puertas 1-2 izq. y 3-4 der.) sin entrepaños intermedios:</text>
    <text x="780" y="863" font-size="6.8">– Guitarra acústica / eléctrica en estuche   L 1.05–1.15 m</text>
    <text x="780" y="873" font-size="6.8">– Violonchelo en estuche blando           L 1.20–1.30 m</text>
    <text x="780" y="883" font-size="6.8">– Atriles plegados y fundas de viento      L 0.50–0.80 m</text>
    <text x="780" y="893" font-size="6.8">Repisas regulables (sistema 32 mm) en el resto de vanos:</text>
    <text x="780" y="903" font-size="6.8">– Saxo, clarinete, flauta, percusión menor   H útil 0.28–0.40 m</text>
    <text x="780" y="913" font-size="6.8">– Amplificadores de práctica                   H 0.30–0.45 m</text>
    <text x="780" y="923" font-size="6.8">– Archivadores / partituras                   H 0.32 m</text>
    <text x="780" y="933" font-size="6.8">Mueble superior central 0.45 m: partituras, metrónomos, cables, estuches chicos.</text>
    <text x="780" y="943" font-size="6.8">Ancho de cada puerta: 0.684 m — permite sacar un estuche de guitarra de frente.</text>

    <text x="780" y="962" font-size="9" font-weight="800">ACABADO SUGERIDO</text>
    <text x="780" y="975" font-size="6.8">Melamina o chapilla tono haya / roble claro, igual al alzado original.</text>
    <text x="780" y="985" font-size="6.8">Herrajes: bisagras clip 110°, rieles de entrepaño perforados 32 mm,</text>
    <text x="780" y="995" font-size="6.8">tiradores verticales negros mate de 128 mm a 1.02 m sobre NPT.</text>
  </g>
</g>

<!-- ================= FOOTER NEGRO ================= -->
<rect x="0" y="1122" width="1600" height="28" fill="black"/>
<text x="18" y="1139" fill="white" font-size="7" letter-spacing="0.4">PROPUESTA DE AJUSTE  ·  NO SUSTITUYE PLANO CD SIN REVISION DE OBRA</text>
<text x="1255" y="1139" fill="white" font-size="7" text-anchor="start" letter-spacing="0.4">ESCALA GRAFICA 1:25  |   0     1 m     2 m</text>

</svg>
